<svg xmlns="http://www.w3.org/2000/svg" width="6.6929in" height="2.75597in" version="1.1" style="shape-rendering:geometricPrecision; text-rendering:geometricPrecision; image-rendering:optimizeQuality; fill-rule:evenodd; clip-rule:evenodd"
viewBox="0 0 8268 11693"
 xmlns:xlink="http://www.w3.org/1999/xlink">
 <defs>
  <style type="text/css">
   <![CDATA[
    .fil0 {fill:black;fill-rule:nonzero}
   ]]>
  </style>
 </defs>
 <g id="__x0023_Layer_x0020_1">
  <metadata id="CorelCorpID_0Corel-Layer"/>
  <path class="fil0" d="M2756 7569l-1929 0 0 -5512 6063 0 0 1102c0,165 110,276 276,276 165,0 276,-110 276,-276l0 -1102c0,-303 -248,-551 -551,-551l-6063 0c-303,0 -551,248 -551,551l0 5512c0,303 248,551 551,551l1929 0c165,0 276,-110 276,-276 0,-165 -110,-276 -276,-276zm3665 -1874l0 0c276,-193 469,-524 469,-882 0,-606 -496,-1102 -1102,-1102 -606,0 -1102,496 -1102,1102 0,358 193,689 469,882 -1130,248 -1571,1102 -1571,1874 0,165 110,276 276,276 165,0 276,-110 276,-276 0,-331 110,-1378 1654,-1378 772,0 1654,358 1654,1378 0,165 110,276 276,276 165,0 276,-110 276,-276 0,-965 -606,-1654 -1571,-1874zm-634 -1433l0 0c303,0 551,248 551,551 0,303 -248,551 -551,551 -303,0 -551,-248 -551,-551 0,-303 248,-551 551,-551zm-827 -827l0 0c0,-165 -110,-276 -276,-276l-2756 0c-165,0 -276,110 -276,276 0,165 110,276 276,276l2756 0c165,0 276,-110 276,-276zm-3032 1102l0 0c-165,0 -276,110 -276,276 0,165 110,276 276,276l1378 0c165,0 276,-110 276,-276 0,-165 -110,-276 -276,-276l-1378 0zm1378 1378l0 0 -1378 0c-165,0 -276,110 -276,276 0,165 110,276 276,276l1378 0c165,0 276,-110 276,-276 0,-165 -110,-276 -276,-276l0 0z"/>
 </g>
</svg>
