<svg xmlns="http://www.w3.org/2000/svg" width="6.6929in" height="2.75597in" version="1.1" style="shape-rendering:geometricPrecision; text-rendering:geometricPrecision; image-rendering:optimizeQuality; fill-rule:evenodd; clip-rule:evenodd"
viewBox="0 0 6693 2756"
 xmlns:xlink="http://www.w3.org/1999/xlink">
 <defs>
  <style type="text/css">
   <![CDATA[
    .fil0 {fill:#010101;fill-rule:nonzero}
   ]]>
  </style>
 </defs>
 <g id="__x0023_Layer_x0020_1">
  <metadata id="CorelCorpID_0Corel-Layer"/>
  <path class="fil0" d="M2657 505c-129,0 -230,101 -230,230l0 808 -60 -60c-18,-18 -46,-18 -64,0 -18,18 -18,46 0,64l138 138c9,9 18,14 32,14 14,0 23,-5 32,-14l138 -138c18,-18 18,-46 0,-64 -18,-18 -46,-18 -64,0l-60 60 0 -808c0,-78 60,-138 138,-138l184 0c28,0 46,-18 46,-46 0,-28 -18,-46 -46,-46l-184 0zm689 0l0 0c-331,0 -597,266 -597,597 0,331 266,597 597,597 331,0 597,-266 597,-597 0,-331 -266,-597 -597,-597zm873 0l0 0c-11,0 -23,5 -32,14l-138 138c-18,18 -18,46 0,64 18,18 46,18 64,0l60 -60 0 808c0,78 -60,138 -138,138l-184 0c-28,0 -46,18 -46,46 0,28 18,46 46,46l184 0c129,0 230,-101 230,-230l0 -808 60 60c9,9 23,14 32,14 9,0 23,-5 32,-14 18,-18 18,-46 0,-64l-138 -138c-9,-9 -21,-14 -32,-14zm-873 92l0 0c280,0 505,225 505,505 0,280 -225,505 -505,505 -280,0 -505,-225 -505,-505 0,-280 225,-505 505,-505zm0 92l0 0c-28,0 -46,18 -46,46l0 51c-78,18 -138,92 -138,179 0,101 83,184 184,184 51,0 92,41 92,92 0,51 -41,92 -92,92 -51,0 -92,-41 -92,-92 0,-28 -18,-46 -46,-46 -28,0 -46,18 -46,46 0,87 60,156 138,179l0 55c0,28 18,46 46,46 28,0 46,-18 46,-46l0 -55c78,-18 138,-92 138,-179 0,-101 -83,-184 -184,-184 -51,0 -92,-41 -92,-92 0,-51 37,-87 87,-92l5 0 5 0c51,5 87,41 87,92 0,28 18,46 46,46 28,0 46,-18 46,-46 0,-87 -60,-156 -138,-179l0 -51c0,-28 -18,-46 -46,-46z"/>
 </g>
</svg>
