<svg xmlns="http://www.w3.org/2000/svg" width="6.6929in" height="2.75597in" version="1.1" style="shape-rendering:geometricPrecision; text-rendering:geometricPrecision; image-rendering:optimizeQuality; fill-rule:evenodd; clip-rule:evenodd"
viewBox="0 0 6693 2756"
 xmlns:xlink="http://www.w3.org/1999/xlink">
 <defs>
  <style type="text/css">
   <![CDATA[
    .fil0 {fill:black;fill-rule:nonzero}
   ]]>
  </style>
 </defs>
 <g id="__x0023_Layer_x0020_1">
  <metadata id="CorelCorpID_0Corel-Layer"/>
  <g id="_334887264">
   <path class="fil0" d="M3236 265c-194,0 -353,158 -353,353 0,194 158,353 353,353 194,0 353,-158 353,-353 0,-194 -158,-353 -353,-353zm0 88l0 0c147,0 265,118 265,265 0,147 -118,265 -265,265 -147,0 -265,-118 -265,-265 0,-147 118,-265 265,-265zm0 706l0 0c-215,0 -409,52 -553,137 -144,85 -240,208 -240,348l0 88c0,24 20,44 44,44l1191 0 0 220c0,23 21,44 44,44l485 0c23,0 44,-21 44,-44l0 -353c0,-23 -21,-44 -44,-44l-44 0 0 -66c0,-59 -22,-111 -59,-146 -37,-35 -87,-52 -140,-52 -32,0 -63,7 -91,20 -26,-21 -53,-41 -83,-59 -144,-85 -338,-137 -553,-137zm0 88l0 0c200,0 381,49 508,125 21,13 41,26 59,40 -24,33 -37,75 -37,122l0 66c-16,0 -33,0 -48,0 -22,2 -40,22 -40,44l0 44 -1146 0 0 -44c0,-99 71,-197 198,-272 127,-75 307,-125 508,-125zm728 176l0 0c33,0 60,10 79,28 19,18 31,43 31,82l0 66 -220 0 0 -66c0,-39 12,-64 31,-82 19,-18 46,-28 79,-28zm-198 265l0 0 397 0 0 265 -397 0 0 -265z"/>
  </g>
 </g>
</svg>
